<?xml version="1.0" encoding="UTF-8" standalone="no"?>
<svg
   xml:space="preserve"
   version="1.1"
   id="svg2"
   sodipodi:docname="file.svg"
   inkscape:version="1.4.2 (f4327f4, 2025-05-13)"
   xmlns:inkscape="http://www.inkscape.org/namespaces/inkscape"
   xmlns:sodipodi="http://sodipodi.sourceforge.net/DTD/sodipodi-0.dtd"
   xmlns="http://www.w3.org/2000/svg"
   xmlns:svg="http://www.w3.org/2000/svg"><defs
     id="defs2" /><sodipodi:namedview
     id="namedview2"
     pagecolor="#ffffff"
     bordercolor="#000000"
     borderopacity="0.25"
     inkscape:showpageshadow="2"
     inkscape:pageopacity="0.0"
     inkscape:pagecheckerboard="0"
     inkscape:deskcolor="#d1d1d1"
     inkscape:zoom="10.866667"
     inkscape:cx="107.34663"
     inkscape:cy="67.039877"
     inkscape:window-width="1920"
     inkscape:window-height="1017"
     inkscape:window-x="-2"
     inkscape:window-y="1072"
     inkscape:window-maximized="1"
     inkscape:current-layer="svg2" /><path
     id="path1"
     style="display:inline;fill:#ba1a2a;fill-opacity:1"
     transform="translate(-2.646,-56.62)"
     d="m 100.19288,108.40711 c -0.41005,-0.039 -1.227396,3e-4 -2.775396,0.0859 -13.654,0.763 -24.595609,5.16456 -27.599609,11.10156 -1.046,2.069 -1.05169,4.29355 -0.01367,6.43555 0.953,1.966 3.504516,4.45307 5.853516,5.70507 0.995,0.53 1.896859,0.96866 2.005859,0.97266 0.478,0.019 0.126203,-0.75231 -0.716797,-1.57031 -1.831,-1.774 -2.179515,-3.65971 -1.103515,-5.9707 0.701,-1.506 2.415078,-3.13833 4.580078,-4.36133 3.433,-1.937 10.145781,-3.55991 16.050781,-3.87891 1.903,-0.103 3.16393,-0.28203 3.210938,-0.45703 0.043,-0.16 0.205339,-1.84609 0.361325,-3.74609 0.156,-1.901 0.36775,-3.6706 0.46875,-3.9336 0.086,-0.226 0.0867,-0.34381 -0.32226,-0.38281 z m 8.30273,0.0996 0.1543,1.58789 c 0.085,0.873 0.23307,2.80216 0.33007,4.28516 l 0.17774,2.69726 1.48437,0.1543 c 4.551,0.478 9.52013,1.28109 11.57813,1.87109 4.386,1.257 7.69898,3.22669 8.70898,5.17969 0.484,0.938 0.4846,2.63987 0.002,3.79687 -1.136,2.718 -6.01933,6.12083 -11.73633,8.17383 -1.734,0.623 -8.11822,2.57563 -9.44922,2.89063 -0.0889,0.0211 -0.1431,0.0421 -0.16211,0.0586 l -0.002,0.002 c -3e-4,3.7e-4 -0.003,0.003 -0.004,0.004 v 0.002 0.002 0.002 0.002 0.002 0.002 l 0.002,0.002 0.002,0.002 0.002,0.002 c 0.15707,0.14229 3.42302,0.0605 5.45313,-0.17188 11.73699,-1.34 21.00681,-6.01628 24.00781,-12.11328 0.733,-1.488 0.86251,-2.03533 0.85351,-3.61133 -0.015,-2.443 -0.75156,-3.96809 -3.01758,-6.24609 -4.72,-4.746 -14.03698,-7.9303 -24.58398,-8.4043 z m -36.304688,3.12305 c -0.19,0.003 -1.350266,0.45092 -2.697266,1.04492 -8.272,3.644 -12.470047,8.75989 -11.873047,14.46289 0.638,6.091 5.020813,11.87486 12.507813,16.50586 9.88,6.112 22.048242,9.35839 35.697268,9.52539 2.355,0.029 4.19961,0.13056 4.09961,0.22656 -0.475,0.456 -6.0676,1.33875 -9.3086,1.46875 -5.65897,0.229 -11.502997,-0.47022 -18.374997,-2.19922 -6.551,-1.65 -12.368922,-4.15486 -17.419922,-7.50586 -3.097,-2.053 -7.646328,-6.21879 -9.111328,-8.34179 l -0.914062,-1.32422 0.169922,1.85351 c 0.414,4.51 1.319265,7.76677 3.197265,11.50977 3.626,7.226 9.633016,12.74197 18.416016,16.91797 4.762,2.264 13.216578,4.78784 19.142578,5.71484 1.6,0.25 3.089639,0.52914 3.306641,0.61914 0.0065,0.003 0.01494,0.007 0.01953,0.01 l 0.002,0.002 v 0.002 h 0.002 v 0.002 0.002 0.002 0.002 0.002 0.002 l -0.002,0.002 -0.002,0.002 -0.002,0.002 -0.002,0.002 h -0.002 c -0.126834,0.0813 -1.320343,0.16921 -2.902343,0.20508 -6.879,0.156 -14.961422,-1.65575 -22.732422,-5.09375 -1.185547,-0.52441 -2.235997,-0.88157 -2.371094,-0.81054 v 0.002 h -0.002 l -0.002,0.002 h -0.002 c -0.207,0.207 1.411039,1.59167 4.248047,3.63867 4.04,2.913 12.229953,6.50469 21.501953,9.42969 1.892,0.596 4.332826,1.43905 5.423826,1.87305 1.092,0.433 2.10868,0.79187 2.26368,0.79687 0.72,0.023 1.19484,-0.75733 1.50586,-2.48632 l 0.33007,-1.83399 3.04297,-0.60156 c 4.277,-0.846 7.72788,-2.04356 12.17188,-4.22656 10.092,-4.959 17.48756,-11.81563 21.72656,-20.14063 0.68878,-1.35334 1.20215,-2.52475 1.16992,-2.66016 l -0.002,-0.002 -0.002,-0.002 v -0.002 -0.002 h -0.002 l -0.002,-0.002 h -0.002 -0.002 -0.002 c -0.13392,-0.002 -1.26444,1.0075 -2.57031,2.30078 -1.35,1.334 -3.40532,3.13972 -4.57032,4.01172 -2.854,2.137 -10.03529,5.72055 -14.15429,7.06055 -5.811,1.891 -6.98111,2.05868 -14.28711,2.05468 -3.565,-0.002 -7.07964,-0.10923 -7.80664,-0.24023 -0.43935,-0.0789 -0.72407,-0.13871 -0.77539,-0.18945 h -0.002 v -0.002 -0.002 l -0.002,-0.002 v -0.002 -0.002 -0.002 -0.002 -0.002 -0.002 l 0.002,-0.002 v -0.002 h 0.002 c 0.0634,-0.0862 0.85739,-0.1755 2.75976,-0.375 9.45,-0.989 19.99696,-4.32228 27.25196,-8.61328 8.043,-4.757 13.57257,-10.72409 15.51757,-16.74609 0.986,-3.05 1.16225,-7.82838 0.40625,-10.98438 -0.593,-2.479 -1.48242,-4.76367 -1.85547,-4.76367 -0.133,0 -0.29818,0.58583 -0.36718,1.29883 -0.16,1.676 -1.64831,4.77992 -3.19532,6.66992 -1.38999,1.698 -5.32137,4.77248 -7.85937,6.14648 -4.916,2.66 -12.06086,4.47785 -20.50586,5.21485 -15.035994,1.313 -34.455095,-3.89322 -42.246095,-11.32422 -5.898,-5.626 -5.91481,-11.79066 -0.04883,-17.72266 1.213,-1.227 2.159093,-2.28123 2.121094,-2.36523 l -0.002,-0.004 a 0.048,0.048 0 0 0 -0.02344,-0.004 z" /><path
     d="m 133.69,67.55 -3.41,0.18 c -9.532,0.503 -15.036,2.593 -19.559,7.428 -3.1,3.314 -4.35,7.064 -4.284,12.844 0.034,2.993 -0.033,3.514 -0.708,5.483 -0.41,1.197 -0.82,2.18 -0.912,2.183 -0.09,0.004 -0.24,-0.367 -0.33,-0.824 -0.092,-0.457 -0.702,-1.962 -1.357,-3.343 -0.893,-1.886 -1.19,-2.826 -1.19,-3.776 0,-2.263 -0.742,-5.266 -1.885,-7.628 -0.907,-1.873 -1.512,-2.682 -3.39,-4.53 -2.58,-2.541 -5.17,-4.149 -8.557,-5.315 -3.145,-1.084 -6.967,-1.65 -9.728,-1.44 -2.3,0.174 -4.138,0.498 -4.418,0.778 -0.269,0.268 0.711,3.331 1.787,5.585 2.237,4.686 5.601,8.702 9.59,11.448 4.116,2.833 7.176,3.841 11.756,3.872 l 2.96,0.02 0.55,1.742 c 1.502,4.756 1.989,9.273 1.754,16.25 -0.278,8.253 -0.65,14.29 -1.078,17.463 -0.216,1.6 -0.413,3.552 -0.44,4.337 -0.05,1.54 0.152,1.833 1.76,2.56 1.1,0.496 2.454,0.455 3.705,-0.114 1.884,-0.858 1.856,-0.675 1.066,-6.953 -0.612,-4.86 -0.945,-9.648 -1.002,-14.094 a 4.766,4.766 0 0 1 -0.008,-1.034 c -0.018,-5.614 0.415,-10.636 1.293,-14.503 l 0.4,-1.755 3.226,-0.02 c 5.226,-0.032 8.818,-1.262 12.581,-4.308 3.355,-2.713 6.645,-7.751 8.098,-12.398 0.743,-2.376 1.73,-7.624 1.73,-9.199 z m -44.827,47.53 c 0.002,0.08 0.001,0.125 0.003,0.13 v -10e-4 a 0.884,0.884 0 0 0 0.01,-0.06 2.209,2.209 0 0 1 -0.013,-0.068 z"
     style="display:inline;fill:#5a9039;fill-opacity:1"
     transform="translate(-2.646,-56.62)"
     id="path2" /></svg>
